<svg width="36" height="36" viewBox="0 0 36 36" fill="none" xmlns="http://www.w3.org/2000/svg">
<circle cx="18" cy="18" r="18" fill="url(#paint0_linear)"/>
<path d="M25.1011 8.50909H11.0641C10.5943 8.52048 10.1481 8.71767 9.82277 9.05764C9.49745 9.39761 9.31943 9.85278 9.32754 10.3238V26.372C9.32916 26.6155 9.3994 26.8535 9.53015 27.0586C9.6609 27.2638 9.84683 27.4277 10.0665 27.5314C10.2862 27.6352 10.5306 27.6745 10.7716 27.645C11.0126 27.6155 11.2404 27.5182 11.4287 27.3644L13.3429 25.7806C13.5513 25.6053 13.8109 25.5028 14.0825 25.4884C14.3541 25.474 14.623 25.5485 14.8487 25.7006L17.38 27.3996C17.5871 27.5397 17.8313 27.6145 18.0812 27.6145C18.331 27.6145 18.5752 27.5397 18.7824 27.3996L21.3136 25.7006C21.5393 25.5485 21.8082 25.474 22.0798 25.4884C22.3514 25.5028 22.611 25.6053 22.8194 25.7806L24.735 27.3644C24.9233 27.5183 25.1512 27.6155 25.3923 27.645C25.6334 27.6745 25.878 27.6351 26.0977 27.5312C26.3174 27.4273 26.5033 27.2632 26.6339 27.0579C26.7646 26.8526 26.8347 26.6145 26.8361 26.3709V10.3227C26.8439 9.85212 26.666 9.39747 26.341 9.05779C26.0161 8.7181 25.5704 8.52089 25.1011 8.50909ZM21.257 16.8326H18.892V17.736H20.421C20.6317 17.7434 20.8314 17.832 20.9786 17.9832C21.1258 18.1345 21.2091 18.3369 21.2113 18.5482C21.2135 18.7596 21.1343 18.9636 20.9902 19.1179C20.8462 19.2722 20.6483 19.3649 20.4379 19.3766H18.892V21.101C18.8981 21.2464 18.8658 21.3909 18.7984 21.5199C18.7311 21.6488 18.631 21.7577 18.5084 21.8356C18.3881 21.9107 18.2493 21.9505 18.1077 21.9505C17.9661 21.9505 17.8272 21.9107 17.707 21.8356C17.5842 21.7579 17.4839 21.649 17.4164 21.52C17.3489 21.3911 17.3165 21.2465 17.3225 21.101V19.3766H15.7307C15.5264 19.3581 15.3364 19.2637 15.1981 19.1119C15.0597 18.9601 14.983 18.7619 14.983 18.5563C14.983 18.3507 15.0597 18.1525 15.1981 18.0007C15.3364 17.8489 15.5264 17.7545 15.7307 17.736H17.3225V16.8335H14.8934C14.7537 16.8324 14.6169 16.7938 14.4972 16.7216C14.3775 16.6494 14.2793 16.5464 14.2128 16.4232C14.1439 16.2976 14.1077 16.1565 14.1077 16.0131C14.1077 15.8696 14.1439 15.7286 14.2128 15.6029C14.2791 15.4796 14.3773 15.3764 14.497 15.3041C14.6167 15.2318 14.7536 15.1931 14.8934 15.1919H17.2978L17.278 15.1744L15.2158 13.3287C15.0668 13.1808 14.9781 12.9826 14.9668 12.7727C14.9556 12.5629 15.0228 12.3563 15.1551 12.1933C15.2179 12.115 15.2955 12.0499 15.3834 12.0016C15.4714 11.9533 15.5679 11.9229 15.6676 11.912C15.7672 11.9012 15.868 11.9101 15.9642 11.9383C16.0604 11.9665 16.1501 12.0135 16.2283 12.0765C16.2316 12.0789 16.2347 12.0816 16.2376 12.084L18.0583 13.7136L19.9456 12.1177C20.0245 12.0498 20.1165 11.999 20.2158 11.9684C20.3151 11.9378 20.4196 11.9279 20.5229 11.9396C20.6267 11.9514 20.727 11.9842 20.8177 12.036C20.9084 12.0879 20.9877 12.1577 21.0507 12.2412C21.1825 12.4121 21.2435 12.6274 21.221 12.8423C21.2006 13.0563 21.0975 13.2539 20.9337 13.3928L18.8945 15.1156V15.1891H21.2727C21.4882 15.194 21.693 15.2838 21.8429 15.4391C21.9928 15.5944 22.0757 15.8026 22.0736 16.0186C22.0716 16.2347 21.9847 16.4413 21.8319 16.5936C21.679 16.7459 21.4725 16.8318 21.257 16.8326Z" fill="white"/>
<defs>
<linearGradient id="paint0_linear" x1="23.434" y1="-3.39623" x2="18" y2="36" gradientUnits="userSpaceOnUse">
<stop stop-color="#FF7D7D"/>
</linearGradient>
</defs>
</svg>
